<svg width="16" height="15" viewBox="0 0 16 15" fill="none" xmlns="http://www.w3.org/2000/svg">
<g id="Frame">
<path id="Vector" d="M8.15198 4.30006C8.03268 4.30006 7.91826 4.25267 7.8339 4.16831C7.74954 4.08395 7.70215 3.96953 7.70215 3.85023C7.70215 3.73092 7.74954 3.6165 7.8339 3.53214C7.91826 3.44778 8.03268 3.40039 8.15198 3.40039C8.27129 3.40039 8.38571 3.44778 8.47007 3.53214C8.55443 3.6165 8.60182 3.73092 8.60182 3.85023C8.60182 3.96953 8.55443 4.08395 8.47007 4.16831C8.38571 4.25267 8.27129 4.30006 8.15198 4.30006ZM8.15198 7.89875C8.03268 7.89875 7.91826 7.85135 7.8339 7.76699C7.74954 7.68263 7.70215 7.56821 7.70215 7.44891C7.70215 7.32961 7.74954 7.21519 7.8339 7.13083C7.91826 7.04647 8.03268 6.99908 8.15198 6.99908C8.27129 6.99908 8.38571 7.04647 8.47007 7.13083C8.55443 7.21519 8.60182 7.32961 8.60182 7.44891C8.60182 7.56821 8.55443 7.68263 8.47007 7.76699C8.38571 7.85135 8.27129 7.89875 8.15198 7.89875ZM8.15198 11.4974C8.03268 11.4974 7.91826 11.45 7.8339 11.3657C7.74954 11.2813 7.70215 11.1669 7.70215 11.0476C7.70215 10.9283 7.74954 10.8139 7.8339 10.7295C7.91826 10.6452 8.03268 10.5978 8.15198 10.5978C8.27129 10.5978 8.38571 10.6452 8.47007 10.7295C8.55443 10.8139 8.60182 10.9283 8.60182 11.0476C8.60182 11.1669 8.55443 11.2813 8.47007 11.3657C8.38571 11.45 8.27129 11.4974 8.15198 11.4974Z" stroke="#121212" stroke-width="0.899671" stroke-linecap="round" stroke-linejoin="round"/>
</g>
</svg>
